# xmcd
#
# Track frame offsets:
#	150
#	10684
#	19942
#	30227
#	38456
#	49770
#	62115
#	76515
#	90914
#	105314
#	115599
#	127942
#	140285
#	151599
#	162913
#	172171
#	181428
#	192742
#	200969
#	214341
#	226685
#	239027
#	251370
#
# Disc length: 3575 seconds
#
# Revision: 1
# Processed by: cddbd v1.5.1PL0 Copyright (c) Steve Scherf et al.
# Submitted via: CDex 1.50Beta5
#
DISCID=1e0df517
DTITLE=さまざまなアーティスト - ANIMATED MOVIE HITS
DYEAR=1900
DGENRE=
TTITLE0=Beauty and The Beast
TTITLE1=Zip-a-Dee-Dah
TTITLE2=Under the Sea
TTITLE3=Circle of Life
TTITLE4=Supercalifagilisticexpialdocious
TTITLE5=I wanna be like you
TTITLE6=Cl\olors of the Wind
TTITLE7=You've got a Friend in me
TTITLE8=Candle on the Water
TTITLE9=Be our Guest
TTITLE10=A whole new World
TTITLE11=Written in the stars
TTITLE12=Hakuna Matada
TTITLE13=Reflection
TTITLE14=Can you feel the love tonight
TTITLE15=Chim Chim Cher-ee
TTITLE16=When see love me
TTITLE17=You'll be in my Heart
TTITLE18=Some day my prince will come
TTITLE19=You can fly!
TTITLE20=Its a Small World
TTITLE21=Kiss the girl
TTITLE22=When you wish upon a star
EXTD=
EXTT0=
EXTT1=
EXTT2=
EXTT3=
EXTT4=
EXTT5=
EXTT6=
EXTT7=
EXTT8=
EXTT9=
EXTT10=
EXTT11=
EXTT12=
EXTT13=
EXTT14=
EXTT15=
EXTT16=
EXTT17=
EXTT18=
EXTT19=
EXTT20=
EXTT21=
EXTT22=
PLAYORDER=
